<?xml version="1.0" standalone="no"?>
<!DOCTYPE svg PUBLIC "-//W3C//DTD SVG 20010904//EN"
 "http://www.w3.org/TR/2001/REC-SVG-20010904/DTD/svg10.dtd">
<svg version="1.0" xmlns="http://www.w3.org/2000/svg"
 width="1820.000000pt" height="1024.000000pt" viewBox="0 0 1820.000000 1024.000000"
 preserveAspectRatio="xMidYMid meet">

<g transform="translate(0.000000,1024.000000) scale(0.100000,-0.100000)"
fill="#000000" stroke="none">
<path d="M8895 9734 c-22 -2 -92 -9 -155 -15 -173 -16 -437 -63 -631 -113
-818 -208 -1520 -606 -2104 -1191 -668 -669 -1101 -1507 -1259 -2435 -44 -262
-51 -362 -50 -765 0 -335 3 -400 22 -545 74 -548 250 -1117 502 -1620 l81
-162 -390 -1172 c-215 -644 -391 -1177 -391 -1184 0 -6 19 -23 41 -38 40 -25
41 -27 35 -65 -5 -30 -3 -39 8 -39 16 0 296 89 1576 498 694 222 805 256 845
256 30 0 84 -20 210 -81 551 -263 1126 -412 1705 -443 185 -10 616 1 770 20
728 90 1444 363 2030 772 596 418 1091 986 1410 1618 361 717 529 1366 547
2105 22 900 -240 1814 -734 2564 -599 910 -1496 1571 -2533 1866 -301 85 -586
138 -830 154 -163 11 -644 21 -705 15z m611 -979 c595 -56 1104 -223 1604
-526 721 -437 1296 -1145 1553 -1909 129 -384 176 -728 164 -1205 -7 -276 -17
-370 -58 -585 -103 -524 -332 -1043 -652 -1473 -590 -794 -1474 -1315 -2446
-1442 -274 -36 -648 -38 -919 -5 -512 62 -1006 233 -1457 505 -69 41 -129 75
-134 75 -16 0 -296 -86 -781 -240 -548 -173 -540 -171 -540 -160 0 5 78 247
174 537 204 621 231 711 223 745 -4 14 -38 72 -75 129 -332 504 -522 1033
-594 1654 -17 148 -17 637 0 780 51 413 150 752 321 1093 182 364 399 661 700
962 537 535 1213 886 1971 1024 116 21 201 32 390 49 101 10 416 5 556 -8z"/>
<path d="M7589 7451 c-80 -16 -144 -59 -257 -173 -146 -147 -208 -227 -269
-346 -172 -332 -194 -709 -66 -1132 94 -313 232 -585 495 -978 227 -339 396
-549 658 -816 365 -372 627 -566 1035 -766 312 -153 761 -324 1000 -381 163
-39 401 -19 615 51 193 63 416 209 529 345 110 132 214 460 228 719 l6 112
-50 44 c-59 53 -224 149 -607 351 -430 228 -515 255 -604 196 -23 -15 -108
-102 -189 -195 -198 -224 -303 -332 -330 -338 -12 -3 -39 0 -60 6 -59 19 -322
153 -436 221 -398 240 -778 635 -1036 1080 -33 58 -61 110 -61 115 0 6 36 50
81 100 157 172 217 267 269 424 31 92 35 154 16 229 -21 82 -307 844 -353 939
-37 79 -90 145 -134 168 -55 28 -378 45 -480 25z"/>
</g>
</svg>
